<svg width="256" height="256" viewBox="0 0 256 256" fill="none" xmlns="http://www.w3.org/2000/svg">
<rect width="256" height="256" rx="64" fill="url(#paint0_linear_0_1)"/>
<path d="M138.332 57C131.316 56.9992 124.425 58.8883 118.363 62.4746C112.3 66.0608 107.283 71.216 103.823 77.4142C110.967 78.1716 117.864 80.4967 124.037 84.2284C130.209 87.9601 135.51 93.0094 139.571 99.0269C143.941 97.8788 148.486 97.298 153.207 97.2846H177.998V68.5818C177.998 65.5101 176.796 62.5642 174.658 60.3922C172.519 58.2202 169.618 57 166.594 57H138.332ZM185.514 107.356C192.317 107.356 197.831 112.955 197.831 119.864V152.676C197.831 161.211 195.459 169.572 190.987 176.798C186.515 184.024 180.124 189.82 172.551 193.52C164.978 197.22 156.53 198.673 148.18 197.712C139.83 196.75 131.917 193.414 125.351 188.086L117.051 196.526C116.12 197.47 114.858 198 113.542 197.999C112.226 197.998 110.965 197.466 110.035 196.521C109.105 195.575 108.584 194.293 108.585 192.957C108.586 191.621 109.109 190.34 110.04 189.395L118.34 180.966C113.23 174.493 109.972 166.717 108.923 158.489C107.873 150.261 109.073 141.898 112.39 134.316C115.303 127.681 119.736 121.85 125.32 117.31C130.905 112.771 137.478 109.655 144.49 108.222C147.313 107.644 150.218 107.356 153.207 107.356H185.514ZM125.411 173.785C127.394 176.484 129.764 178.881 132.422 180.905L156.717 156.231C157.62 155.281 158.12 154.009 158.109 152.689C158.097 151.369 157.576 150.106 156.657 149.172C155.737 148.238 154.494 147.709 153.194 147.697C151.894 147.686 150.641 148.193 149.706 149.111L125.411 173.785ZM129.853 102.602C119.213 107.737 110.487 116.22 104.973 126.793L97.2181 118.907C96.7571 118.439 96.2098 118.068 95.6075 117.814C95.0052 117.561 94.3596 117.431 93.7077 117.431C93.0557 117.431 92.4102 117.561 91.8079 117.814C91.2055 118.068 90.6583 118.439 90.1973 118.907C89.7363 119.376 89.3706 119.931 89.1211 120.543C88.8716 121.155 88.7432 121.81 88.7432 122.473C88.7432 123.135 88.8716 123.79 89.1211 124.402C89.3706 125.014 89.7363 125.57 90.1973 126.038L100.907 136.915C99.4164 142.031 98.6616 147.34 98.6659 152.676C98.6659 157.893 99.3799 162.948 100.709 167.732C95.3346 168.014 89.9603 167.182 84.9128 165.287C79.8653 163.392 75.2503 160.474 71.3486 156.71C67.4468 152.946 64.3399 148.415 62.217 143.393C60.0941 138.371 58.9996 132.963 59 127.498V98.7953C59 92.39 64.107 87.2134 70.404 87.2134H98.6659C111.319 87.2134 122.594 93.236 129.853 102.602Z" fill="url(#paint1_linear_0_1)"/>
<defs>
<linearGradient id="paint0_linear_0_1" x1="0" y1="0" x2="256" y2="256" gradientUnits="userSpaceOnUse">
<stop offset="0.18" stop-color="#E4896A"/>
<stop offset="1" stop-color="#9D587A"/>
</linearGradient>
<linearGradient id="paint1_linear_0_1" x1="197.831" y1="57" x2="56.8477" y2="195.814" gradientUnits="userSpaceOnUse">
<stop stop-color="#254132"/>
<stop offset="1" stop-color="#1F372D"/>
</linearGradient>
</defs>
</svg>
